<svg height="490pt" viewBox="0 -33 490 490" width="490pt" xmlns="http://www.w3.org/2000/svg"><path d="m481.820312 336h-13.820312v-248.542969c.054688-12.84375-5.015625-25.179687-14.082031-34.273437-9.070313-9.097656-21.390625-14.203125-34.234375-14.183594h-58.683594v-30.953125c.019531-3.253906-1.945312-6.1875-4.957031-7.414063-3.011719-1.226562-6.464844-.5-8.726563 1.839844l-15.890625 16.363282-15.898437-16.363282c-1.507813-1.554687-3.578125-2.4296872-5.738282-2.4296872-2.160156 0-4.230468.8750002-5.738281 2.4296872l-15.875 16.359375-15.867187-16.378906c-1.503906-1.558594-3.574219-2.4453125-5.738282-2.453125-2.167968.0078125-4.238281.890625-5.742187 2.449219l-15.875 16.371093-15.871094-16.351562c-1.507812-1.550781-3.578125-2.4296875-5.742187-2.4296875-2.164063 0-4.234375.8789065-5.742188 2.4296875l-15.867187 16.355469-15.871094-16.351563c-1.507813-1.550781-3.578125-2.4296872-5.742187-2.4296872-2.164063 0-4.234376.8789062-5.742188 2.4296872l-15.855469 16.351563-15.847656-16.347657c-2.257813-2.339843-5.710937-3.070312-8.722656-1.84375-3.007813 1.226563-4.96875 4.160157-4.949219 7.414063v30.953125h-58.683594c-12.84375-.019531-25.164062 5.085938-34.234375 14.183594-9.066406 9.09375-14.136719 21.429687-14.082031 34.273437v248.542969h-13.820312c-4.460938 0-8.0976568 3.574219-8.179688 8.035156v31.265625c.113281 26.902344 21.933594 48.660157 48.839844 48.699219h392.320312c26.90625-.039062 48.726563-21.796875 48.839844-48.699219v-31.265625c-.082031-4.460937-3.71875-8.035156-8.179688-8.035156zm-62.136718-281c8.601562-.023438 16.855468 3.394531 22.925781 9.492188 6.070313 6.09375 9.449219 14.363281 9.390625 22.964843v248.542969h-24v-246.199219c.042969-2.078125-.761719-4.085937-2.230469-5.554687-1.46875-1.472656-3.472656-2.285156-5.550781-2.246094h-59.21875v-27zm-290.683594 202h-22.074219c-4.417969 0-8 3.582031-8 8s3.582031 8 8 8h276.148438c4.417969 0 8-3.582031 8-8s-3.582031-8-8-8h-22.074219v-159h51v238h-107.351562c-2.238282.007812-4.371094.949219-5.882813 2.601562l-8.253906 8.914063c-6.195313 6.6875-14.898438 10.488281-24.011719 10.484375h-43c-9.117188.007812-17.820312-3.792969-24.015625-10.480469l-8.25-8.945312c-1.515625-1.644531-3.648437-2.574219-5.882813-2.574219h-107.351562v-238h51zm16-229.207031 7.808594 7.933593c1.519531 1.511719 3.585937 2.332032 5.726562 2.273438h-.007812c2.140625.058594 4.214844-.761719 5.738281-2.269531l15.855469-16.273438 15.867187 16.390625c1.5 1.5625 3.570313 2.445313 5.734375 2.449219 2.164063.007813 4.238282-.867187 5.75-2.417969l15.867188-16.351562 15.871094 16.359375c1.503906 1.550781 3.578124 2.429687 5.738281 2.429687 2.164062 0 4.234375-.875 5.742187-2.425781l15.875-16.355469 15.863282 16.199219c1.523437 1.507813 3.597656 2.324219 5.742187 2.265625 2.140625.058594 4.214844-.761719 5.738281-2.269531l15.890625-16.28125 15.898438 16.398437c1.503906 1.554688 3.574219 2.4375 5.738281 2.445313 2.148438.003906 4.207031-.867188 5.699219-2.414063l7.863281-8.117187v229.238281h-200zm-107 59.664062c-.058594-8.601562 3.320312-16.871093 9.390625-22.964843 6.070313-6.097657 14.324219-9.515626 22.925781-9.492188h58.683594v27h-59.21875c-2.078125-.039062-4.082031.773438-5.550781 2.246094-1.46875 1.46875-2.273438 3.476562-2.230469 5.554687v246.199219h-24zm436 287.84375c-.101562 18.070313-14.765625 32.671875-32.839844 32.699219h-392.320312c-18.074219-.027344-32.738282-14.628906-32.839844-32.699219v-23.300781h165.847656l5.875 6.347656c9.226563 9.972656 22.191406 15.644532 35.777344 15.652344h43c13.585938-.003906 26.554688-5.679688 35.777344-15.652344l5.875-6.347656h165.847656zm0 0"/><path d="m208.503906 202h72.996094c4.417969 0 8-3.582031 8-8s-3.582031-8-8-8h-72.988281c-4.421875 0-8 3.582031-8 8s3.578125 8 8 8zm0 0"/><path d="m316.253906 218h-142.507812c-4.417969 0-8 3.582031-8 8s3.582031 8 8 8h142.507812c4.417969 0 8-3.582031 8-8s-3.582031-8-8-8zm0 0"/><path d="m245.023438 142.269531c-.660157-.175781-1.339844-.265625-2.023438-.269531-.171875 0-.335938.015625-.5.027344-6.300781-1.210938-10.859375-6.71875-10.871094-13.132813 0-4.417969-3.582031-8-8-8-4.417968 0-8 3.582031-8 8 .015625 12.359375 7.753906 23.394531 19.371094 27.621094v5.484375c0 4.417969 3.582031 8 8 8s8-3.582031 8-8v-4.347656c14.738281-3.078125 24.765625-16.796875 23.21875-31.773438-1.546875-14.976562-14.164062-26.359375-29.21875-26.363281-7.386719 0-13.378906-5.988281-13.378906-13.375s5.988281-13.378906 13.378906-13.378906c7.386719 0 13.375 5.992187 13.375 13.378906 0 4.417969 3.582031 8 8 8s8-3.582031 8-8c-.019531-13.90625-9.765625-25.898437-23.375-28.757813v-4.382812c0-4.417969-3.582031-8-8-8s-8 3.582031-8 8v5.519531c-13.417969 4.851563-21.40625 18.644531-18.941406 32.699219s14.671875 24.304688 28.941406 24.300781c7.34375.054688 13.265625 6.023438 13.273438 13.363281.003906 7.34375-5.910157 13.316407-13.25 13.386719zm0 0"/></svg>